<svg width="100%" height="100%" viewBox="0 25 350 200" fill="none" xmlns="http://www.w3.org/2000/svg">
<rect width="390" height="256" fill="black"/>
<g filter="url(#filter0_f_529_171)">
<path d="M330.65 128C330.65 169.421 297.072 203 255.65 203C214.229 203 180.65 169.421 180.65 128C180.65 86.5786 214.229 53 255.65 53C297.072 53 330.65 86.5786 330.65 128ZM195.678 128C195.678 161.122 222.529 187.972 255.65 187.972C288.772 187.972 315.622 161.122 315.622 128C315.622 94.8783 288.772 68.0279 255.65 68.0279C222.529 68.0279 195.678 94.8783 195.678 128Z" fill="url(#paint0_linear_529_171)"/>
</g>
<path d="M56.0341 145.35V110.441H70.0114C72.5795 110.441 74.7216 110.821 76.4375 111.583C78.1534 112.344 79.4432 113.401 80.3068 114.753C81.1705 116.094 81.6023 117.639 81.6023 119.389C81.6023 120.753 81.3295 121.952 80.7841 122.986C80.2386 124.009 79.4886 124.85 78.5341 125.509C77.5909 126.156 76.5114 126.617 75.2955 126.889V127.23C76.625 127.287 77.8693 127.662 79.0284 128.355C80.1989 129.048 81.1477 130.02 81.875 131.27C82.6023 132.509 82.9659 133.986 82.9659 135.702C82.9659 137.554 82.5057 139.208 81.5852 140.662C80.6761 142.105 79.3295 143.247 77.5455 144.088C75.7614 144.929 73.5625 145.35 70.9489 145.35H56.0341ZM63.4148 139.316H69.4318C71.4886 139.316 72.9886 138.923 73.9318 138.139C74.875 137.344 75.3466 136.287 75.3466 134.969C75.3466 134.003 75.1136 133.151 74.6477 132.412C74.1818 131.673 73.517 131.094 72.6534 130.673C71.8011 130.253 70.7841 130.043 69.6023 130.043H63.4148V139.316ZM63.4148 125.048H68.8864C69.8977 125.048 70.7955 124.872 71.5795 124.52C72.375 124.156 73 123.645 73.4545 122.986C73.9205 122.327 74.1534 121.537 74.1534 120.617C74.1534 119.355 73.7045 118.338 72.8068 117.566C71.9205 116.793 70.6591 116.406 69.0227 116.406H63.4148V125.048ZM99.5639 145.861C96.8707 145.861 94.5526 145.316 92.6094 144.225C90.6776 143.122 89.1889 141.566 88.1435 139.554C87.098 137.531 86.5753 135.139 86.5753 132.378C86.5753 129.685 87.098 127.321 88.1435 125.287C89.1889 123.253 90.6605 121.668 92.5582 120.531C94.4673 119.395 96.706 118.827 99.2741 118.827C101.001 118.827 102.609 119.105 104.098 119.662C105.598 120.208 106.905 121.031 108.018 122.134C109.143 123.236 110.018 124.622 110.643 126.293C111.268 127.952 111.581 129.895 111.581 132.122V134.117H89.473V129.617H104.746C104.746 128.571 104.518 127.645 104.064 126.838C103.609 126.031 102.979 125.401 102.172 124.946C101.376 124.48 100.45 124.247 99.3935 124.247C98.2912 124.247 97.3139 124.503 96.4616 125.014C95.6207 125.514 94.9616 126.191 94.4844 127.043C94.0071 127.884 93.7628 128.821 93.7514 129.855V134.134C93.7514 135.429 93.9901 136.548 94.4673 137.492C94.956 138.435 95.6435 139.162 96.5298 139.673C97.4162 140.185 98.4673 140.441 99.6832 140.441C100.49 140.441 101.229 140.327 101.899 140.1C102.57 139.872 103.143 139.531 103.621 139.077C104.098 138.622 104.462 138.066 104.712 137.406L111.428 137.85C111.087 139.463 110.388 140.872 109.331 142.077C108.286 143.27 106.933 144.202 105.274 144.872C103.626 145.531 101.723 145.861 99.5639 145.861ZM130.246 119.168V124.622H114.479V119.168H130.246ZM118.058 112.895H125.32V137.304C125.32 137.975 125.422 138.497 125.626 138.872C125.831 139.236 126.115 139.492 126.479 139.639C126.854 139.787 127.286 139.861 127.774 139.861C128.115 139.861 128.456 139.833 128.797 139.776C129.138 139.708 129.399 139.656 129.581 139.622L130.723 145.026C130.359 145.139 129.848 145.27 129.189 145.418C128.53 145.577 127.729 145.673 126.786 145.708C125.036 145.776 123.501 145.543 122.183 145.009C120.876 144.475 119.859 143.645 119.132 142.52C118.405 141.395 118.047 139.975 118.058 138.259V112.895ZM148.902 119.168V124.622H133.135V119.168H148.902ZM136.714 112.895H143.976V137.304C143.976 137.975 144.078 138.497 144.283 138.872C144.487 139.236 144.771 139.492 145.135 139.639C145.51 139.787 145.942 139.861 146.43 139.861C146.771 139.861 147.112 139.833 147.453 139.776C147.794 139.708 148.055 139.656 148.237 139.622L149.379 145.026C149.016 145.139 148.504 145.27 147.845 145.418C147.186 145.577 146.385 145.673 145.442 145.708C143.692 145.776 142.158 145.543 140.839 145.009C139.533 144.475 138.516 143.645 137.788 142.52C137.061 141.395 136.703 139.975 136.714 138.259V112.895ZM165.283 145.861C162.589 145.861 160.271 145.316 158.328 144.225C156.396 143.122 154.908 141.566 153.862 139.554C152.817 137.531 152.294 135.139 152.294 132.378C152.294 129.685 152.817 127.321 153.862 125.287C154.908 123.253 156.379 121.668 158.277 120.531C160.186 119.395 162.425 118.827 164.993 118.827C166.72 118.827 168.328 119.105 169.817 119.662C171.317 120.208 172.624 121.031 173.737 122.134C174.862 123.236 175.737 124.622 176.362 126.293C176.987 127.952 177.3 129.895 177.3 132.122V134.117H155.192V129.617H170.464C170.464 128.571 170.237 127.645 169.783 126.838C169.328 126.031 168.697 125.401 167.891 124.946C167.095 124.48 166.169 124.247 165.112 124.247C164.01 124.247 163.033 124.503 162.18 125.014C161.339 125.514 160.68 126.191 160.203 127.043C159.726 127.884 159.482 128.821 159.47 129.855V134.134C159.47 135.429 159.709 136.548 160.186 137.492C160.675 138.435 161.362 139.162 162.249 139.673C163.135 140.185 164.186 140.441 165.402 140.441C166.209 140.441 166.947 140.327 167.618 140.1C168.288 139.872 168.862 139.531 169.339 139.077C169.817 138.622 170.18 138.066 170.43 137.406L177.146 137.85C176.805 139.463 176.107 140.872 175.05 142.077C174.004 143.27 172.652 144.202 170.993 144.872C169.345 145.531 167.442 145.861 165.283 145.861ZM182.038 145.35V119.168H189.078V123.736H189.351C189.828 122.111 190.629 120.884 191.754 120.054C192.879 119.213 194.175 118.793 195.641 118.793C196.004 118.793 196.396 118.816 196.817 118.861C197.237 118.906 197.607 118.969 197.925 119.048V125.492C197.584 125.389 197.112 125.298 196.51 125.219C195.908 125.139 195.357 125.1 194.857 125.1C193.788 125.1 192.834 125.333 191.993 125.798C191.163 126.253 190.504 126.889 190.016 127.708C189.538 128.526 189.3 129.469 189.3 130.537V145.35H182.038Z" fill="url(#paint1_linear_529_171)"/>
<path d="M208.122 110.441L216.56 136.963H216.884L225.338 110.441H233.52L221.486 145.35H211.974L199.923 110.441H208.122ZM266.92 110.441V145.35H260.545L245.358 123.378H245.102V145.35H237.722V110.441H244.199L259.267 132.395H259.574V110.441H266.92ZM291.956 120.48C291.82 119.105 291.234 118.037 290.2 117.276C289.166 116.514 287.763 116.134 285.99 116.134C284.786 116.134 283.768 116.304 282.939 116.645C282.109 116.975 281.473 117.435 281.03 118.026C280.598 118.617 280.382 119.287 280.382 120.037C280.359 120.662 280.49 121.208 280.774 121.673C281.07 122.139 281.473 122.543 281.984 122.884C282.496 123.213 283.087 123.503 283.757 123.753C284.428 123.992 285.143 124.196 285.905 124.367L289.041 125.117C290.564 125.458 291.962 125.912 293.234 126.48C294.507 127.048 295.609 127.747 296.541 128.577C297.473 129.406 298.195 130.384 298.706 131.509C299.229 132.634 299.496 133.923 299.507 135.378C299.496 137.514 298.95 139.367 297.871 140.935C296.803 142.492 295.257 143.702 293.234 144.566C291.223 145.418 288.797 145.844 285.956 145.844C283.138 145.844 280.683 145.412 278.592 144.548C276.513 143.685 274.888 142.406 273.717 140.713C272.558 139.009 271.95 136.901 271.893 134.389H279.036C279.115 135.56 279.45 136.537 280.041 137.321C280.643 138.094 281.445 138.679 282.445 139.077C283.456 139.463 284.598 139.656 285.871 139.656C287.121 139.656 288.206 139.475 289.126 139.111C290.058 138.747 290.78 138.242 291.291 137.594C291.803 136.946 292.058 136.202 292.058 135.361C292.058 134.577 291.825 133.918 291.359 133.384C290.905 132.85 290.234 132.395 289.348 132.02C288.473 131.645 287.399 131.304 286.126 130.997L282.325 130.043C279.382 129.327 277.058 128.208 275.354 126.685C273.649 125.162 272.803 123.111 272.814 120.531C272.803 118.418 273.365 116.571 274.501 114.992C275.649 113.412 277.223 112.179 279.223 111.293C281.223 110.406 283.496 109.963 286.041 109.963C288.632 109.963 290.893 110.406 292.825 111.293C294.768 112.179 296.28 113.412 297.359 114.992C298.439 116.571 298.996 118.401 299.03 120.48H291.956Z" fill="white"/>
<defs>
<filter id="filter0_f_529_171" x="165.65" y="38" width="180" height="180" filterUnits="userSpaceOnUse" color-interpolation-filters="sRGB">
<feFlood flood-opacity="0" result="BackgroundImageFix"/>
<feBlend mode="normal" in="SourceGraphic" in2="BackgroundImageFix" result="shape"/>
<feGaussianBlur stdDeviation="7.5" result="effect1_foregroundBlur_529_171"/>
</filter>
<linearGradient id="paint0_linear_529_171" x1="318" y1="74.8496" x2="181" y2="134.85" gradientUnits="userSpaceOnUse">
<stop stop-color="#1DB954"/>
<stop offset="0.486906" stop-color="#048EFF"/>
<stop offset="1"/>
</linearGradient>
<linearGradient id="paint1_linear_529_171" x1="53" y1="128.35" x2="308" y2="128.35" gradientUnits="userSpaceOnUse">
<stop stop-color="white"/>
<stop offset="1"/>
</linearGradient>
</defs>
</svg>
